<svg xmlns="http://www.w3.org/2000/svg" xmlns:xlink="http://www.w3.org/1999/xlink" version="1.1" width="256" height="256" viewBox="0 0 256 256" xml:space="preserve">

<defs>
</defs>
<g style="stroke: none; stroke-width: 0; stroke-dasharray: none; stroke-linecap: butt; stroke-linejoin: miter; stroke-miterlimit: 10; fill: none; fill-rule: nonzero; opacity: 1;" transform="translate(1.4065934065934016 1.4065934065934016) scale(2.81 2.81)" >
	<path d="M 45 0 C 20.147 0 0 20.147 0 45 c 0 24.853 20.147 45 45 45 s 45 -20.147 45 -45 C 90 20.147 69.853 0 45 0 z M 45.454 68.712 c -4.304 0 -8.347 -1.1 -11.865 -3.031 L 20 70 l 4.431 -13.068 c -2.235 -3.67 -3.522 -7.974 -3.522 -12.576 C 20.908 30.904 31.898 20 45.454 20 C 59.013 20 70 30.904 70 44.356 S 59.012 68.712 45.454 68.712 z" style="stroke: none; stroke-width: 1; stroke-dasharray: none; stroke-linecap: butt; stroke-linejoin: miter; stroke-miterlimit: 10; fill: #075050; fill-rule: nonzero; opacity: 1;" transform=" matrix(1 0 0 1 0 0) " stroke-linecap="round" />
	<path d="M 45.454 23.879 c -11.38 0 -20.637 9.186 -20.637 20.477 c 0 4.481 1.461 8.63 3.931 12.006 l -2.578 7.605 l 7.931 -2.521 c 3.258 2.139 7.162 3.387 11.354 3.387 c 11.378 0 20.637 -9.185 20.637 -20.476 C 66.092 33.066 56.834 23.879 45.454 23.879 z M 57.499 52.805 c -0.503 1.393 -2.96 2.738 -4.062 2.837 c -1.103 0.1 -1.103 0.897 -7.221 -1.492 c -6.117 -2.391 -9.977 -8.615 -10.278 -9.013 c -0.302 -0.398 -2.457 -3.236 -2.457 -6.174 c 0 -2.937 1.554 -4.382 2.105 -4.979 c 0.552 -0.597 1.204 -0.747 1.605 -0.747 s 0.803 0.05 1.153 0.05 c 0.352 0 0.852 -0.199 1.353 0.996 c 0.501 1.196 1.706 4.133 1.856 4.432 c 0.151 0.299 0.252 0.648 0.05 1.046 c -0.199 0.399 -0.299 0.647 -0.601 0.996 c -0.301 0.348 -0.632 0.778 -0.903 1.046 c -0.301 0.297 -0.614 0.62 -0.264 1.217 c 0.351 0.598 1.559 2.552 3.347 4.134 c 2.298 2.033 4.237 2.664 4.838 2.963 c 0.602 0.299 0.953 0.249 1.304 -0.151 c 0.352 -0.398 1.505 -1.742 1.906 -2.34 c 0.401 -0.597 0.803 -0.497 1.354 -0.298 c 0.55 0.198 3.509 1.643 4.111 1.942 c 0.601 0.298 1.002 0.448 1.153 0.697 C 57.999 50.214 57.999 51.409 57.499 52.805 z" style="stroke: none; stroke-width: 1; stroke-dasharray: none; stroke-linecap: butt; stroke-linejoin: miter; stroke-miterlimit: 10; fill: #075050; fill-rule: nonzero; opacity: 1;" transform=" matrix(1 0 0 1 0 0) " stroke-linecap="round" />
</g>
</svg>